<svg xmlns="http://www.w3.org/2000/svg" viewBox="0 0 64 64">
  <rect width="64" height="64" fill="#12161A"/>

  <!-- Slab 1 (bottom): red / Convolution, level y=46 -->
  <polygon points="60,46 32,56 32,62 60,52" fill="#8B2920"/>
  <polygon points="4,46 32,56 32,62 4,52" fill="#C0392B"/>
  <polygon points="4,46 32,56 60,46 32,36" fill="#E55347"/>

  <!-- Slab 2: orange / Linear, level y=40 -->
  <polygon points="60,40 32,50 32,56 60,46" fill="#A85B19"/>
  <polygon points="4,40 32,50 32,56 4,46" fill="#E67E22"/>
  <polygon points="4,40 32,50 60,40 32,30" fill="#F4A55F"/>

  <!-- Slab 3: blue / Normalization, level y=34 -->
  <polygon points="60,34 32,44 32,50 60,40" fill="#1B5E8A"/>
  <polygon points="4,34 32,44 32,50 4,40" fill="#3498DB"/>
  <polygon points="4,34 32,44 60,34 32,24" fill="#62C4F5"/>

  <!-- Slab 4: purple / Pooling, level y=28 -->
  <polygon points="60,28 32,38 32,44 60,34" fill="#6C3F80"/>
  <polygon points="4,28 32,38 32,44 4,34" fill="#9B59B6"/>
  <polygon points="4,28 32,38 60,28 32,18" fill="#C39BD3"/>

  <!-- Slab 5 (top): green / Activation, level y=22 -->
  <polygon points="60,22 32,32 32,38 60,28" fill="#28784A"/>
  <polygon points="4,22 32,32 32,38 4,28" fill="#52C57A"/>
  <polygon points="4,22 32,32 60,22 32,12" fill="#7AEBA0"/>
</svg>
